<svg width="7" height="11" viewBox="0 0 7 11" fill="none" xmlns="http://www.w3.org/2000/svg">
<path d="M0.902832 5.45508L1.43604 0.757812H6.61572V2.2876H2.94043L2.71191 4.27441C3.14779 4.04167 3.61117 3.92529 4.10205 3.92529C4.98226 3.92529 5.67204 4.19824 6.17139 4.74414C6.67074 5.29004 6.92041 6.05387 6.92041 7.03564C6.92041 7.63232 6.79346 8.16764 6.53955 8.6416C6.28988 9.11133 5.93018 9.47738 5.46045 9.73975C4.99072 9.99788 4.43636 10.127 3.79736 10.127C3.23877 10.127 2.72038 10.0148 2.24219 9.79053C1.764 9.56201 1.38525 9.24251 1.10596 8.83203C0.830892 8.42155 0.684896 7.95394 0.667969 7.4292H2.4834C2.52148 7.81429 2.65479 8.11475 2.8833 8.33057C3.11605 8.54215 3.41862 8.64795 3.79102 8.64795C4.20573 8.64795 4.52523 8.49984 4.74951 8.20361C4.9738 7.90316 5.08594 7.47998 5.08594 6.93408C5.08594 6.40934 4.95687 6.00732 4.69873 5.72803C4.44059 5.44873 4.07454 5.30908 3.60059 5.30908C3.16471 5.30908 2.81136 5.42334 2.54053 5.65186L2.36279 5.81689L0.902832 5.45508Z" fill="white"/>
</svg>
