<svg width="30" height="30" viewBox="0 0 30 30" fill="none" xmlns="http://www.w3.org/2000/svg">
<path d="M18.3285 15.0762H11.6726C11.1871 15.0762 10.7937 14.6825 10.7937 14.1973V10.7355C10.7937 10.25 11.1871 9.85657 11.6726 9.85657H18.3285C18.814 9.85657 19.2074 10.25 19.2074 10.7355V14.1973C19.2074 14.6825 18.814 15.0762 18.3285 15.0762ZM12.5515 13.3184H17.4496V11.6144H12.5515V13.3184Z" fill="#3C3C3B"/>
<path d="M27.3633 4.86328H2.63672C1.18286 4.86328 0 6.04614 0 7.5V22.5128C0 23.9667 1.18286 25.1495 2.63672 25.1495H27.3633C28.8171 25.1495 30 23.9667 30 22.5128V7.5C30 6.04614 28.8171 4.86328 27.3633 4.86328ZM28.2422 22.5126C28.2422 22.9974 27.8478 23.3915 27.3633 23.3915H2.63672C2.15218 23.3915 1.75781 22.9974 1.75781 22.5126V7.5C1.75781 7.01546 2.15218 6.62109 2.63672 6.62109H27.3633C27.8478 6.62109 28.2422 7.01546 28.2422 7.5V22.5126Z" fill="#3C3C3B"/>
<path d="M25.3258 21.0404C25.7856 21.0404 26.226 20.6362 26.2047 20.1615C26.1834 19.6852 25.8186 19.2826 25.3258 19.2826C24.8662 19.2826 24.4256 19.6868 24.4469 20.1615C24.4682 20.6376 24.833 21.0404 25.3258 21.0404Z" fill="#3C3C3B"/>
<path d="M22.3679 21.0404C22.8275 21.0404 23.2681 20.6362 23.2468 20.1615C23.2256 19.6852 22.8607 19.2826 22.3679 19.2826C21.9081 19.2826 21.4677 19.6868 21.489 20.1615C21.5103 20.6376 21.8751 21.0404 22.3679 21.0404Z" fill="#3C3C3B"/>
<path d="M25.3258 18.7124C25.7856 18.7124 26.226 18.3082 26.2047 17.8335C26.1834 17.3572 25.8186 16.9546 25.3258 16.9546C24.8662 16.9546 24.4256 17.3588 24.4469 17.8335C24.4682 18.3096 24.833 18.7124 25.3258 18.7124Z" fill="#3C3C3B"/>
<path d="M22.3679 18.7124C22.8275 18.7124 23.2681 18.3082 23.2468 17.8335C23.2256 17.3572 22.8607 16.9546 22.3679 16.9546C21.9081 16.9546 21.4677 17.3588 21.489 17.8335C21.5103 18.3096 21.8751 18.7124 22.3679 18.7124Z" fill="#3C3C3B"/>
<path d="M17.3441 19.9344H12.6566C12.1712 19.9344 11.7777 19.541 11.7777 19.0555C11.7777 18.5703 12.1712 18.1766 12.6566 18.1766H17.3441C17.8296 18.1766 18.223 18.5703 18.223 19.0555C18.223 19.541 17.8296 19.9344 17.3441 19.9344Z" fill="#3C3C3B"/>
<path d="M23.8467 15.431C22.3929 15.431 21.21 14.2484 21.21 12.7943C21.21 11.3405 22.3929 10.1576 23.8467 10.1576C25.3006 10.1576 26.4835 11.3405 26.4835 12.7943C26.4835 14.2484 25.3006 15.431 23.8467 15.431ZM23.8467 11.9154C23.3622 11.9154 22.9678 12.3098 22.9678 12.7943C22.9678 13.2791 23.3622 13.6732 23.8467 13.6732C24.3313 13.6732 24.7256 13.2791 24.7256 12.7943C24.7256 12.3098 24.3315 11.9154 23.8467 11.9154Z" fill="#3C3C3B"/>
<path d="M7.63044 21.0404C8.09027 21.0404 8.53063 20.6362 8.50935 20.1615C8.48806 19.6852 8.12322 19.2826 7.63044 19.2826C7.17085 19.2826 6.73025 19.6868 6.75153 20.1615C6.77282 20.6376 7.13766 21.0404 7.63044 21.0404Z" fill="#3C3C3B"/>
<path d="M4.67353 21.0404C5.13313 21.0404 5.57373 20.6362 5.55244 20.1615C5.53115 19.6852 5.16632 19.2826 4.67353 19.2826C4.21371 19.2826 3.77334 19.6868 3.79463 20.1615C3.81591 20.6376 4.18075 21.0404 4.67353 21.0404Z" fill="#3C3C3B"/>
<path d="M7.63044 18.7124C8.09027 18.7124 8.53063 18.3082 8.50935 17.8335C8.48806 17.3572 8.12322 16.9546 7.63044 16.9546C7.17085 16.9546 6.73025 17.3588 6.75153 17.8335C6.77282 18.3096 7.13766 18.7124 7.63044 18.7124Z" fill="#3C3C3B"/>
<path d="M4.67353 18.7124C5.13313 18.7124 5.57373 18.3082 5.55244 17.8335C5.53115 17.3572 5.16632 16.9546 4.67353 16.9546C4.21371 16.9546 3.77334 17.3588 3.79463 17.8335C3.81591 18.3096 4.18075 18.7124 4.67353 18.7124Z" fill="#3C3C3B"/>
<path d="M6.15326 15.431C4.6994 15.431 3.51654 14.2484 3.51654 12.7943C3.51654 11.3405 4.6994 10.1576 6.15326 10.1576C7.60712 10.1576 8.78998 11.3405 8.78998 12.7943C8.78998 14.2484 7.60712 15.431 6.15326 15.431ZM6.15326 11.9154C5.66872 11.9154 5.27435 12.3098 5.27435 12.7943C5.27435 13.2791 5.66872 13.6732 6.15326 13.6732C6.6378 13.6732 7.03217 13.2791 7.03217 12.7943C7.03217 12.3098 6.6378 11.9154 6.15326 11.9154Z" fill="#3C3C3B"/>
</svg>
